<svg width="1500" height="378" xmlns="http://www.w3.org/2000/svg" version="1.1">
<style type="text/css">
        /* SVG Style */
    @font-face {
        font-family: 'Poppins';
        font-style: normal;
        font-weight: 700;
        font-display: swap;
        src: url(https://fonts.gstatic.com/s/poppins/v19/pxiByp8kv8JHgFVrLCz7Z1xlFQ.woff2) format('woff2');
        unicode-range: U+0000-00FF, U+0131, U+0152-0153, U+02BB-02BC, U+02C6, U+02DA, U+02DC, U+2000-206F, U+2074, U+20AC, U+2122, U+2191, U+2193, U+2212, U+2215, U+FEFF, U+FFFD;
    }
    .text{
        font-family: 'Poppins' !important;
    }
</style>
 <g>
  <path d="m1278.66016,6.96392c20.64033,-0.63893 39.83891,6.64327 54.93359,20.71094c10.40625,10.59207 10.40625,10.59207 10.40625,14.44922c0.69223,-0.44731 1.38446,-0.89461 2.09766,-1.35547c17.29459,-10.68665 37.01574,-14.50711 57.1875,-11.03125c13.63401,3.31007 26.37564,9.91232 36.71484,19.38672c0.94746,0.84498 0.94746,0.84498 1.91407,1.70703c12.69191,11.9371 20.77951,29.10046 21.51953,46.51953c0.02373,2.13268 0.02448,4.26572 0.0039,6.39844c-0.00902,1.13228 -0.01804,2.26456 -0.02734,3.43115c-0.4756,23.29438 -8.34246,42.4753 -25.22266,58.75635c-6.35807,5.62614 -13.37016,10.24423 -20.41406,14.96093c-4.21361,2.82643 -8.32557,5.76433 -12.39844,8.78907c-7.32301,5.42679 -14.75894,10.68337 -22.21777,15.92138c-3.55652,2.49955 -7.10662,5.00817 -10.65723,7.51612c-4.23596,2.99158 -8.47286,5.98178 -12.71484,8.96484c-7.25751,5.10748 -14.48088,10.2557 -21.66016,15.47266c-8.57689,6.22642 -17.31171,12.20717 -26.07666,18.16455c-4.04376,2.75978 -8.05069,5.57184 -12.04834,8.39795c-3.68111,-4.30182 -6.45794,-8.94937 -9.3125,-13.8125c-5.21695,-8.79206 -10.58285,-17.48115 -16.01733,-26.14014c-4.94585,-7.88095 -9.84932,-15.78714 -14.72266,-23.71314c-0.50603,-0.82056 -1.01207,-1.64113 -1.53344,-2.48657c-0.44392,-0.72179 -0.88785,-1.44359 -1.34522,-2.18725c-0.96371,-1.62587 -0.96371,-1.62587 -2.06885,-2.6604c-0.21582,0.6313 -0.43165,1.26261 -0.65402,1.91305c-2.08166,6.08608 -4.16824,12.17045 -6.25973,18.25316c-1.07391,3.12376 -2.14566,6.24822 -3.21418,9.37383c-4.52628,13.23643 -9.13546,26.43874 -14.06738,39.53027c-0.37905,1.02689 -0.75811,2.05378 -1.14865,3.11178c-4.19846,10.97529 -9.90107,24.28682 -20.8826,29.97025c-7.98697,2.97796 -16.73001,2.51927 -24.77344,-0.15234c-1.6875,-1.25391 -1.6875,-1.25391 -3,-3c0.11841,-2.17652 0.11841,-2.17652 0.80078,-4.66797c0.23526,-0.89268 0.47051,-1.78535 0.7129,-2.70508c0.26361,-0.92877 0.52722,-1.85754 0.79882,-2.81445c0.25202,-0.94037 0.50403,-1.88075 0.76368,-2.84961c0.62569,-2.3257 1.26742,-4.64571 1.92382,-6.96289c0.90819,0.0261 0.90819,0.0261 1.83472,0.05273c0.80091,0.01354 1.60182,0.02707 2.427,0.04102c1.18662,0.0261 1.18662,0.0261 2.39722,0.05273c3.81586,-0.23876 6.55888,-1.55219 9.34106,-4.14648c2.75503,-4.01113 4.37103,-8.17426 5,-13c-0.58478,-2.39145 -0.58478,-2.39145 -1.71215,-4.76636c-0.40307,-0.92661 -0.80613,-1.85321 -1.22141,-2.80789c-0.45118,-1.00031 -0.90236,-2.00061 -1.36722,-3.03122c-0.46375,-1.0567 -0.9275,-2.1134 -1.4053,-3.20212c-1.00184,-2.27849 -2.00979,-4.5543 -3.02313,-6.8277c-1.58865,-3.56425 -3.16155,-7.13505 -4.73001,-10.70822c-2.13304,-4.85691 -4.27156,-9.71131 -6.4148,-14.56372c-4.17262,-9.45624 -8.29693,-18.933 -12.38535,-28.42593c-1.16208,-2.69216 -2.33352,-5.38011 -3.50552,-8.06797c-0.70257,-1.62779 -1.40467,-3.25579 -2.1062,-4.88403c-0.32074,-0.72984 -0.64149,-1.45968 -0.97195,-2.21164c-1.47931,-3.46129 -2.15696,-5.67307 -2.15696,-9.5032c10.56,0 21.12,0 32,0c2.04721,5.83002 4.09267,11.66061 6.13404,17.49267c0.69239,1.97658 1.38572,3.95282 2.08008,5.92871c11.40646,32.4652 11.40646,32.4652 13.78588,44.57862c0.13826,-0.65928 0.27651,-1.31855 0.41895,-1.99781c1.65992,-7.5502 3.65027,-14.97496 5.75293,-22.41235c0.28806,-1.02177 0.57613,-2.04355 0.87292,-3.09628c1.20758,-4.2769 2.41799,-8.55291 3.64124,-12.82535c0.8999,-3.14871 1.78756,-6.30066 2.67334,-9.45337c0.42016,-1.44996 0.42016,-1.44996 0.84881,-2.92921c0.25067,-0.89872 0.50133,-1.79743 0.75959,-2.72338c0.22411,-0.78685 0.44823,-1.57371 0.67914,-2.38441c0.71811,-4.42932 -1.21074,-7.38642 -3.49067,-11.07237c-0.58273,-0.94835 -1.16547,-1.8967 -1.76587,-2.87378c-0.93573,-1.50688 -0.93573,-1.50688 -1.89038,-3.04419c-1.28004,-2.08588 -2.55999,-4.17182 -3.83984,-6.25782c-1.70296,-2.76275 -3.40799,-5.5241 -5.12158,-8.28027c-13.44759,-21.63197 -18.98786,-43.18622 -13.1294,-68.40674c5.33775,-20.26138 16.52679,-37.88964 34.84473,-48.75049c11.97816,-6.50875 23.83191,-9.83509 37.40625,-10.65234z" fill=" #3CA732" id="svg_2"/>
  <path d="m1432.98438,43.17486c2.43388,1.89917 4.74011,3.86403 7.01563,5.94922c0.63164,0.56332 1.26328,1.12664 1.91406,1.70703c12.69191,11.93711 20.77951,29.10046 21.51953,46.51953c0.02374,2.13268 0.02448,4.26573 0.00391,6.39844c-0.00903,1.13228 -0.01805,2.26456 -0.02735,3.43115c-0.4756,23.29439 -8.34246,42.4753 -25.22265,58.75635c-6.35808,5.62614 -13.37017,10.24423 -20.41407,14.96094c-4.21361,2.82643 -8.32557,5.76432 -12.39844,8.78906c-7.32301,5.42679 -14.75894,10.68337 -22.21777,15.92139c-3.55652,2.49954 -7.10662,5.00817 -10.65723,7.51611c-4.23596,2.99158 -8.47286,5.98179 -12.71484,8.96484c-7.2575,5.10748 -14.48105,10.25547 -21.66016,15.47266c-7.10361,5.16005 -14.3046,10.16147 -21.58154,15.07397c-4.95876,3.35758 -9.7859,6.85131 -14.54346,10.48853c-0.65999,-0.33 -1.31999,-0.66 -2,-1c9.61062,-27.42336 19.2573,-54.83303 29.0625,-82.1875c0.401,-1.11881 0.802,-2.23761 1.21515,-3.39032c4.40133,-12.27108 8.84012,-24.52527 13.40985,-36.73468c3.09121,-8.26898 6.05216,-16.5728 8.875,-24.9375c0.3354,-0.98396 0.6708,-1.96792 1.01636,-2.98169c5.91694,-17.80705 5.76432,-39.17179 -2.69604,-56.17065c-1.09688,-2.15252 -2.21639,-4.27525 -3.41602,-6.37232c-2.56966,-4.631 -2.56966,-4.631 -2.08008,-7.45972c21.19497,-23.19642 65.22749,-14.08701 87.59766,1.28516z" fill=" #BBD6A0" id="svg_3"/>
  <path d="m560,117.12408c8.58,0 17.16,0 26,0c6.0354,6.65975 6.0354,6.65975 7.46094,10.37109c2.95596,6.90888 6.93649,13.17829 10.82913,19.58716c2.03455,3.36458 4.02932,6.75246 6.02634,10.13941c2.36036,4.00089 4.73229,7.99315 7.15161,11.95874c0.40246,0.66209 0.80493,1.32418 1.21959,2.00633c0.7559,1.24145 1.5154,2.48073 2.27945,3.71719c3.71297,6.10746 6.42246,12.57614 9.03294,19.22008c0.40605,-1.20656 0.40605,-1.20656 0.82031,-2.4375c3.92931,-10.72911 9.46404,-20.20323 15.30469,-29.99609c4.74107,-7.96496 9.19323,-16.08421 13.63647,-24.21778c1.16331,-2.11592 2.35677,-4.21559 3.58179,-6.29638c1.7444,-3.00314 1.7444,-3.00314 2.73926,-6.28809c1.23389,-3.05713 1.23389,-3.05713 5.91748,-7.76416c8.58,0 17.16,0 26,0c0,45.87 0,91.74 0,139c-9.57,0 -19.14,0 -29,0c-0.04566,-9.13806 -0.08215,-18.27604 -0.10362,-27.41419c-0.01033,-4.24577 -0.02427,-8.49145 -0.04726,-12.73718c-0.09704,-18.38448 -0.12357,-36.56845 2.15088,-54.84863c-0.29977,0.82386 -0.29977,0.82386 -0.60559,1.66437c-5.11506,13.99638 -11.77466,26.44371 -19.4906,39.1745c-3.29857,5.47702 -6.50217,11.0093 -9.71631,16.53613c-0.60473,1.03479 -1.20946,2.06959 -1.83252,3.13574c-0.55671,0.95294 -1.11343,1.90588 -1.68701,2.8877c-0.49218,0.84224 -0.98436,1.68448 -1.49146,2.55224c-0.76295,1.32896 -1.4912,2.6787 -2.17651,4.04932c-3.78107,0.50459 -7.23368,0.68646 -11,0c-2.79286,-2.29114 -4.1148,-5.16533 -5.6875,-8.375c-0.99502,-1.83793 -1.99392,-3.67377 -2.99609,-5.50781c-0.52578,-0.98775 -1.05156,-1.97549 -1.59327,-2.99317c-3.08936,-5.60095 -6.56587,-10.96298 -9.97314,-16.37402c-6.76389,-10.89424 -13.02354,-21.81007 -17.75,-33.75c0.14211,1.01759 0.28422,2.03518 0.43063,3.0836c1.4216,10.71131 1.83794,21.18845 1.76468,31.98281c-0.00374,1.65722 -0.00658,3.31444 -0.00857,4.97166c-0.00753,4.29886 -0.02708,8.59758 -0.04941,12.89638c-0.0207,4.4118 -0.02964,8.82363 -0.03967,13.23547c-0.02126,8.6101 -0.05635,17.22006 -0.09766,25.83008c-8.91,0 -17.82,0 -27,0c0,-45.87 0,-91.74 0,-139z" fill=" #636363" id="svg_4"/>
  <path d="m825,117.12408c9.24,0 18.48,0 28,0c0.33,14.85 0.66,29.7 1,45c3.3,-1.98 6.6,-3.96 10,-6c10.0534,-3.68625 22.20737,-3.37437 32,1c9.80778,4.97566 14.74086,12.6603 18.1875,22.91406c4.78305,18.1664 4.74293,39.7652 -4.53516,56.51953c-7.13534,11.28335 -16.48196,18.11216 -29.60131,21.16675c-16.78742,3.27116 -39.50641,2.17197 -55.05103,-5.60034c0,-44.55 0,-89.1 0,-135z" fill=" #636363" id="svg_5"/>
  <path d="m147,119.12408c-0.58359,8.31617 -2.73799,16.01459 -5,24c-3.67395,-0.43223 -7.32244,-0.88321 -10.96875,-1.51172c-15.12593,-2.5883 -30.60158,-3.01039 -43.88281,5.80078c-7.95829,6.33769 -11.92068,16.18605 -13.76953,26.01172c-1.69974,16.59437 -1.32491,33.60342 8.62109,47.69922c6.51049,7.51857 15.4576,11.33071 25.28906,12.20313c7.15409,0.14356 14.24902,-0.97217 20.71094,-4.20313c0.33,-8.25 0.66,-16.5 1,-25c-10.56,-0.99 -21.12,-1.98 -32,-3c0,-5.94 0,-11.88 0,-18c18.48,0 36.96,0 56,0c0.18899,8.10572 0.3692,16.20343 0.46575,24.30945c0.04746,3.77476 0.11081,7.5477 0.21321,11.32141c0.09807,3.63765 0.15165,7.27354 0.17494,10.91241c0.01658,1.38529 0.04896,2.77048 0.09767,4.15501c0.36557,10.82577 0.36557,10.82577 -2.88365,14.46676c-2.30827,1.57703 -4.49309,2.7565 -7.06792,3.83496c-0.6396,0.28745 -1.27919,0.5749 -1.93817,0.87106c-20.55322,8.42987 -44.57082,8.82249 -65.31183,0.94144c-16.18735,-7.27668 -25.07645,-18.89896 -31.75,-34.8125c-6.30624,-17.94352 -7.04481,-41.96346 -1,-60c0.32871,-1.0016 0.65742,-2.0032 0.99609,-3.03516c6.36149,-17.05934 17.6651,-28.67886 33.98828,-36.26953c20.78765,-9.12797 46.70063,-7.25816 68.01563,-0.69531z" fill=" #3BA731" id="svg_6"/>
  <path d="m793.00781,162.43658c9.94607,8.42491 15.62153,19.72664 16.99219,32.6875c1.20684,18.76723 0.14226,35.41656 -11.75,50.8125c-7.77572,8.46599 -19.72255,12.77976 -31,13.39063c-15.62728,0.29065 -28.58368,-1.99306 -40.5,-12.82813c-11.62143,-12.37271 -13.53541,-28.90124 -13.10157,-45.12891c0.73794,-14.54894 5.45998,-28.18252 16.35157,-38.24609c17.20922,-13.00252 45.48512,-13.52464 63.00781,-0.6875z" fill=" #636262" id="svg_7"/>
  <path d="m417.4375,160.87408c7.42421,6.23383 11.56102,13.80149 13.5625,23.25c0.21993,3.41386 0.18513,6.82973 0.1875,10.25c0.01225,0.91652 0.02449,1.83305 0.03711,2.77734c0.00193,0.90364 0.00387,1.80727 0.00586,2.73829c0.00411,0.81243 0.00822,1.62486 0.01245,2.46191c-0.32014,3.65383 -1.35334,7.21414 -2.24292,10.77246c-19.8,0 -39.6,0 -60,0c2.00158,11.72946 2.00158,11.72946 9,20c5.32304,2.77324 9.65833,3.54689 15.625,3.5c1.1749,-0.00205 1.1749,-0.00205 2.37354,-0.00415c7.48501,-0.1948 13.20941,-2.38538 20.00146,-5.49585c1.3283,-0.35284 2.66107,-0.68991 4,-1c1.36646,2.59836 2.71831,5.20266 4.0625,7.8125c0.38994,0.73799 0.77988,1.47598 1.18164,2.23633c0.36416,0.71221 0.72832,1.42441 1.10352,2.1582c0.34039,0.6546 0.68078,1.30921 1.03149,1.98364c0.62085,1.80933 0.62085,1.80933 -0.37915,4.80933c-15.65033,10.04971 -35.94316,12.52502 -54,8.875c-11.20314,-3.04387 -19.51614,-9.41358 -25.5,-19.37109c-8.65726,-17.34028 -8.45449,-38.12435 -3.5,-56.50391c3.66997,-10.34265 11.02846,-19.23915 21,-24c16.02912,-6.40089 37.73231,-7.32884 52.4375,2.75z" fill=" #3BA731" id="svg_8"/>
  <path d="m287.6875,153.87408c0.94295,-0.02063 1.8859,-0.04125 2.85742,-0.0625c11.02669,-0.06063 20.31244,2.83363 28.58789,10.21484c9.97449,10.17692 10.2437,21.07678 10.16016,34.64478c-0.09006,5.00422 -0.46298,9.47291 -1.29297,14.45288c-20.13,0 -40.26,0 -61,0c2.48951,12.12578 2.48951,12.12578 10,20.3125c7.6956,4.32878 18.89817,3.94215 27.35156,1.86328c2.60467,-0.96509 5.11359,-2.04275 7.64844,-3.17578c1.99402,-0.68434 3.99286,-1.35516 6,-2c1.36937,2.40912 2.72042,4.82574 4.0625,7.25c0.38994,0.68191 0.77988,1.36383 1.18164,2.06641c0.36416,0.66386 0.72832,1.32773 1.10352,2.01172c0.51059,0.9112 0.51059,0.9112 1.03149,1.84082c0.79619,2.34817 0.5378,3.54881 -0.37915,5.83105c-14.80854,9.97808 -33.40481,11.68867 -50.71094,9.53906c-11.05921,-2.23285 -19.78794,-7.21137 -26.28906,-16.53906c-5.82656,-9.54159 -8.41709,-19.9065 -9,-31c-0.04125,-0.69223 -0.0825,-1.38445 -0.125,-2.09766c-0.48827,-16.32646 3.06279,-31.60226 14.125,-43.90234c10.04515,-8.7239 21.78751,-11.18088 34.6875,-11.25z" fill=" #3BA731" id="svg_9"/>
  <path d="m524.02734,156.74517c7.32842,5.12263 10.76501,11.84506 12.97266,20.37891c0.81247,4.849 1.12216,9.49028 1.11352,14.40405c0.00015,0.70328 0.00029,1.40656 0.00044,2.13115c-0.00069,2.29949 -0.00844,4.59891 -0.01631,6.89839c-0.00186,1.60425 -0.00329,3.20851 -0.00429,4.81276c-0.0038,4.2036 -0.01361,8.40717 -0.0247,12.61076c-0.01026,4.29697 -0.0148,8.59395 -0.01984,12.89093c-0.01069,8.41734 -0.02827,16.83464 -0.04882,25.25196c-8.91,0 -17.82,0 -27,0c-0.04899,-4.20364 -0.09797,-8.40727 -0.14844,-12.73828c-0.04463,-3.38004 -0.09112,-6.76005 -0.13886,-10.14004c-0.04966,-3.55233 -0.09615,-7.10462 -0.13458,-10.65708c-0.04438,-4.08864 -0.10391,-8.17695 -0.16406,-12.26538c-0.01155,-1.25566 -0.0231,-2.51131 -0.035,-3.80501c-0.16075,-12.58515 -0.16075,-12.58515 -3.87906,-24.45671c-3.85636,-2.98868 -7.66199,-3.77435 -12.5,-3.9375c-6.04543,0.92493 -10.11678,3.20307 -14,8c-2.81827,3.95883 -3.38542,6.69817 -3.43238,11.53442c-0.01979,1.30097 -0.03959,2.60194 -0.05998,3.94234c-0.00677,1.41009 -0.01321,2.82018 -0.01936,4.23027c-0.01686,1.45018 -0.03501,2.90035 -0.0544,4.35051c-0.04742,3.80572 -0.07728,7.61139 -0.10344,11.41731c-0.02985,3.88806 -0.07636,7.77591 -0.12146,11.66382c-0.08594,7.62036 -0.15179,15.24069 -0.20898,22.86133c-8.91,0 -17.82,0 -27,0c0,-33 0,-66 0,-100c7.26,0 14.52,0 22,0c0.99,3.96 1.98,7.92 3,12c0.96937,-1.05188 1.93875,-2.10375 2.9375,-3.1875c11.40698,-11.40699 32.3074,-15.67388 47.08984,-8.19141z" fill=" #3BA731" id="svg_10"/>
  <path d="m1166,156.12408c10.56,0 21.12,0 32,0c2.0472,5.83003 4.09267,11.66061 6.13403,17.49268c0.6924,1.97657 1.38573,3.95282 2.08008,5.92871c11.40647,32.46519 11.40647,32.46519 13.78589,44.57861c0.14043,-0.65782 0.28085,-1.31565 0.42554,-1.99341c2.38445,-10.74976 5.31473,-21.34661 8.24511,-31.95801c0.89982,-3.26501 1.78946,-6.5327 2.67896,-9.80053c0.57165,-2.07635 1.14389,-4.15252 1.7168,-6.22852c0.39693,-1.46544 0.39693,-1.46544 0.80189,-2.96049c0.25044,-0.89887 0.50087,-1.79773 0.7589,-2.72383c0.21745,-0.7913 0.4349,-1.5826 0.65895,-2.39788c0.71385,-1.93733 0.71385,-1.93733 2.71385,-3.93733c2.2701,3.60522 4.53006,7.21654 6.78101,10.83374c0.76647,1.2286 1.53565,2.45551 2.30761,3.68066c1.1118,1.76554 2.21361,3.53698 3.31372,5.30982c0.66508,1.06307 1.33016,2.12615 2.01538,3.22143c1.96589,3.6706 2.92707,6.33019 2.04851,10.46868c-0.30959,0.88754 -0.61918,1.77509 -0.93815,2.68953c-0.3482,1.01684 -0.69639,2.03368 -1.05513,3.08134c-0.3894,1.09569 -0.77879,2.19138 -1.17998,3.32027c-0.39942,1.15204 -0.79885,2.30409 -1.21037,3.49104c-0.85281,2.45232 -1.71149,4.90261 -2.57552,7.351c-1.2876,3.64935 -2.55825,7.30421 -3.82544,10.96069c-4.15323,11.93151 -8.4325,23.81782 -12.88086,35.64258c-0.37881,1.02812 -0.75762,2.05625 -1.1479,3.11553c-4.19136,10.98364 -9.89187,24.29948 -20.87944,29.98603c-7.98698,2.97796 -16.73002,2.51928 -24.77344,-0.15234c-1.6875,-1.25391 -1.6875,-1.25391 -3,-3c0.11841,-2.17651 0.11841,-2.17651 0.80078,-4.66797c0.35288,-1.33901 0.35288,-1.33901 0.71289,-2.70508c0.26362,-0.92877 0.52723,-1.85754 0.79883,-2.81445c0.25201,-0.94037 0.50402,-1.88074 0.76367,-2.84961c0.6257,-2.32569 1.26743,-4.64571 1.92383,-6.96289c0.60546,0.0174 1.21091,0.0348 1.83472,0.05273c1.20136,0.02031 1.20136,0.02031 2.427,0.04102c0.79108,0.0174 1.58216,0.0348 2.39722,0.05273c3.81585,-0.23876 6.55888,-1.55218 9.34106,-4.14648c2.75503,-4.01112 4.37103,-8.17426 5,-13c-0.58478,-2.39144 -0.58478,-2.39144 -1.71216,-4.76636c-0.40306,-0.9266 -0.80613,-1.85321 -1.2214,-2.80789c-0.45119,-1.0003 -0.90237,-2.0006 -1.36722,-3.03122c-0.46375,-1.0567 -0.9275,-2.1134 -1.40531,-3.20212c-1.00184,-2.27849 -2.00978,-4.5543 -3.02313,-6.82769c-1.58864,-3.56425 -3.16154,-7.13506 -4.73001,-10.70823c-2.13304,-4.8569 -4.27155,-9.71131 -6.41479,-14.56372c-4.17262,-9.45624 -8.29693,-18.933 -12.38535,-28.42593c-1.16208,-2.69216 -2.33352,-5.38011 -3.50552,-8.06796c-0.70258,-1.6278 -1.40467,-3.25579 -2.1062,-4.88404c-0.32075,-0.72984 -0.64149,-1.45968 -0.97196,-2.21164c-1.4793,-3.46129 -2.15695,-5.67307 -2.15695,-9.5032z" fill=" #636362" id="svg_11"/>
  <path d="m1133,131.12408c0,8.25 0,16.5 0,25c8.25,0 16.5,0 25,0c0,7.59 0,15.18 0,23c-8.25,0 -16.5,0 -25,0c0.07412,6.56599 0.15706,13.13065 0.26245,19.69604c0.03318,2.2317 0.06123,4.46349 0.08399,6.69532c0.03367,3.21495 0.08599,6.42916 0.14184,9.6438c0.00639,0.99193 0.01278,1.98387 0.01936,3.00587c0.12032,5.71615 0.70416,9.92312 3.49236,14.95897c2.39463,1.19732 3.95376,1.16682 6.625,1.1875c0.81727,0.01418 1.63453,0.02836 2.47656,0.04297c3.7956,-0.30181 7.2225,-1.23899 10.89844,-2.23047c0.7004,2.72643 1.38558,5.45524 2.0625,8.1875c0.29874,1.15339 0.29874,1.15339 0.60352,2.33008c1.01558,4.15142 1.67137,7.28519 0.33398,11.48242c-2.0401,0.65077 -4.08216,1.2954 -6.125,1.9375c-1.70543,0.53947 -1.70543,0.53947 -3.44531,1.08984c-10.42255,2.95583 -23.5613,4.23713 -33.42969,-1.02734c-6.36964,-3.8523 -9.0942,-8.91934 -11,-16c-0.50825,-4.78412 -0.46799,-9.5138 -0.39063,-14.32031c0.00748,-1.35334 0.01317,-2.70668 0.01716,-4.06003c0.01513,-3.52818 0.05429,-7.05568 0.09881,-10.58359c0.04123,-3.61349 0.05926,-7.2271 0.07935,-10.84076c0.04264,-7.0654 0.11289,-14.13024 0.19531,-21.19531c-4.62,0 -9.24,0 -14,0c0,-7.59 0,-15.18 0,-23c4.62,0 9.24,0 14,0c0,-5.94 0,-11.88 0,-18c5.32492,-1.99684 10.29994,-3.736 15.75,-5.1875c1.27359,-0.34418 2.54719,-0.68836 3.85937,-1.04297c3.39063,-0.76953 3.39063,-0.76953 7.39063,-0.76953z" fill=" #646363" id="svg_12"/>
  <path d="m987,117.12408c9.24,0 18.48,0 28,0c0.01458,3.36663 0.02917,6.73326 0.04419,10.2019c0.05031,11.1161 0.1169,22.23205 0.19152,33.348c0.04495,6.74043 0.08437,13.48081 0.11073,20.22134c0.02544,6.50345 0.06635,13.00669 0.11675,19.50999c0.0167,2.4827 0.02819,4.96543 0.03442,7.44818c0.00961,3.47415 0.03763,6.9477 0.07002,10.42171c-0.00216,1.54396 -0.00216,1.54396 -0.00435,3.11911c0.04408,6.87705 0.04408,6.87705 3.43672,12.72977c2.09907,0.63968 2.09907,0.63968 4.375,0.375c0.75023,-0.03352 1.50047,-0.06703 2.27344,-0.10156c2.47037,-0.28725 4.91284,-0.7857 7.35156,-1.27344c0.99,6.93 1.98,13.86 3,21c-11.44177,4.90362 -23.80897,7.51895 -36.125,3.75c-5.0092,-2.03381 -8.05291,-4.19391 -10.625,-9.0625c-2.53504,-7.47837 -2.38895,-14.76677 -2.36353,-22.5896c-0.00021,-1.77181 -0.00021,-1.77181 -0.00044,-3.57941c0.00058,-3.22057 0.00557,-6.4411 0.01258,-9.66167c0.00627,-3.37256 0.00684,-6.74513 0.00802,-10.1177c0.0031,-6.37819 0.0113,-12.75636 0.02135,-19.13455c0.0112,-7.26483 0.01668,-14.52967 0.0217,-21.79451c0.01043,-14.9367 0.02876,-29.87337 0.05032,-44.81006z" fill=" #636363" id="svg_13"/>
  <path d="m232,156.12408c-0.60785,8.7339 -1.68142,17.346 -3,26c-0.61746,-0.15598 -1.23492,-0.31195 -1.87109,-0.47266c-7.382,-1.69662 -13.54372,-2.35376 -20.44141,1.16016c-3.84666,3.30992 -6.37764,6.40841 -7.20648,11.50168c-0.00888,1.14139 -0.01777,2.28279 -0.02692,3.45877c-0.02958,1.95134 -0.02958,1.95134 -0.05975,3.94211c-0.00166,1.40487 -0.0029,2.80975 -0.00373,4.21463c-0.01499,1.44876 -0.03172,2.8975 -0.0501,4.34622c-0.04357,3.79754 -0.06365,7.59486 -0.07874,11.39261c-0.01961,3.88146 -0.06158,7.76268 -0.10162,11.64398c-0.07519,7.60413 -0.12348,15.20807 -0.16016,22.8125c-8.91,0 -17.82,0 -27,0c0,-33 0,-66 0,-100c6.93,0 13.86,0 21,0c0.99,3.63 1.98,7.26 3,11c0.495,-0.70125 0.99,-1.4025 1.5,-2.125c9.60813,-11.04935 20.88879,-12.83462 34.5,-8.875z" fill=" #3BA731" id="svg_14"/>
  <path d="m1050,156.12408c8.91,0 17.82,0 27,0c0,33 0,66 0,100c-8.91,0 -17.82,0 -27,0c0,-33 0,-66 0,-100z" fill=" #646363" id="svg_15"/>
  <path d="m936,156.12408c8.91,0 17.82,0 27,0c0,33 0,66 0,100c-8.91,0 -17.82,0 -27,0c0,-33 0,-66 0,-100z" fill=" #646363" id="svg_16"/>
  <path d="m774.375,180.12408c8.64923,9.88484 8.44333,23.58585 7.625,36c-1.25315,7.52814 -3.91879,13.61049 -10.0625,18.375c-4.76234,2.4375 -9.7314,2.38406 -14.9375,1.625c-4.86506,-1.67544 -8.2532,-4.68359 -11,-9c-5.33172,-11.54808 -5.82254,-25.54791 -1.97656,-37.625c2.06685,-5.02659 4.34354,-8.35436 8.97656,-11.25c7.67001,-2.87625 14.28593,-2.32593 21.375,1.875z" fill="#ffffff" id="svg_17"/>
  <path d="m880.3125,178.62408c7.52007,6.99541 9.10443,14.37573 9.6875,24.5c-0.01107,10.48442 -0.80656,20.63193 -8.27344,28.55859c-4.8329,4.03471 -10.32609,4.88934 -16.47656,4.67579c-8.94767,-0.93205 -8.94767,-0.93205 -11.25,-3.23438c-0.11858,-1.33817 -0.17,-2.68241 -0.19287,-4.02563c-0.01606,-0.85502 -0.03213,-1.71004 -0.04868,-2.59096c-0.04447,-3.9394 -0.08557,-7.87863 -0.10855,-11.81822c-0.0165,-2.07271 -0.04371,-4.14536 -0.08203,-6.21778c-0.05505,-2.9924 -0.07669,-5.98347 -0.09131,-8.97632c-0.02267,-0.91802 -0.04534,-1.83603 -0.06869,-2.78187c0.02055,-6.32428 1.35733,-10.78187 5.59213,-15.58922c6.40516,-4.81121 13.98258,-5.81921 21.3125,-2.5z" fill="#ffffff" id="svg_18"/>
  <path d="m959.5625,116.87408c2.89175,1.73385 4.99832,3.11766 6.4375,6.25c1.08183,4.45511 1.34843,7.91372 -0.0625,12.3125c-2.91254,4.03997 -6.24756,6.12419 -10.9375,7.6875c-12.56193,0.9426 -12.56193,0.9426 -18,-3c-3.08273,-3.41599 -4.89458,-5.62953 -5.25,-10.25c0.35721,-5.35818 1.80959,-8.41762 5.75,-12.0625c6.23299,-4.20727 15.34144,-4.12313 22.0625,-0.9375z" fill=" #636262" id="svg_19"/>
  <path d="m1073.5625,116.87408c3.68974,2.21231 5.83489,3.97249 6.96875,8.25781c0.85125,4.82923 0.69462,8.38011 -2.12109,12.48438c-3.5277,3.77199 -7.29628,5.26369 -12.38672,5.85156c-7.12199,0.21207 -11.83566,-0.58675 -17.33594,-5.34375c-2.82333,-3.34617 -3.0279,-6.64425 -2.97266,-10.9375c0.59342,-4.2921 3.19761,-7.10677 6.34766,-9.875c6.12586,-3.75456 15.11939,-3.46177 21.5,-0.4375z" fill=" #646262" id="svg_20"/>
  <path d="m400,178.12408c5.50296,5.50296 6,10.33143 6,18c-12.21,0 -24.42,0 -37,0c3.78465,-13.87706 3.78465,-13.87706 9,-18c7.37791,-4.18382 14.53761,-4.08319 22,0z" fill="#ffffff" id="svg_21"/>
  <path d="m298,178.12408c3.03789,2.79517 5.62727,5.77577 6,10c0,2.64 0,5.28 0,8c-11.88,0 -23.76,0 -36,0c1.07895,-8.63158 2.31941,-13.07055 9.0625,-18.4375c7.11251,-3.78325 13.83111,-3.51049 20.9375,0.4375z" fill="#ffffff" id="svg_22"/>
  <text class="text" stroke="#000" xml:space="preserve" text-anchor="start" font-size="80" font-weight="semibold" id="svg_1" y="350" x="40" stroke-width="0">Engineering</text>
 </g>

</svg>