<?xml version="1.0" standalone="no"?>
<!DOCTYPE svg PUBLIC "-//W3C//DTD SVG 20010904//EN"
 "http://www.w3.org/TR/2001/REC-SVG-20010904/DTD/svg10.dtd">
<svg version="1.0" xmlns="http://www.w3.org/2000/svg"
 width="180.000000pt" height="60.000000pt" viewBox="0 0 180.000000 60.000000"
 preserveAspectRatio="xMidYMid meet" style="transform: scale(0.7);">

<g transform="translate(0.000000,60.000000) scale(0.100000,-0.100000)"
fill="#3BA731" stroke="none">
<path d="M214 586 c-261 -85 -286 -437 -39 -556 75 -36 181 -35 257 3 177 87
225 315 97 461 -75 85 -213 126 -315 92z m41 -158 c50 -22 23 -59 -37 -50 -52
6 -68 -13 -68 -79 0 -61 20 -83 69 -75 57 9 84 -30 36 -52 -88 -40 -185 27
-185 128 0 101 97 168 185 128z m136 -98 c13 -55 26 -97 30 -92 3 4 16 49 29
100 l22 92 38 0 38 0 -43 -133 c-49 -155 -65 -188 -100 -211 -32 -21 -85 -32
-85 -18 0 6 -3 17 -6 26 -4 10 2 17 20 22 48 12 48 22 1 170 -25 76 -45 140
-45 142 0 1 18 2 39 2 l40 0 22 -100z"/>
<path d="M745 424 c-19 -10 -31 -11 -33 -5 -2 6 -17 11 -33 11 l-29 0 0 -186
0 -186 23 6 c12 3 28 6 35 6 8 0 12 18 12 54 l0 55 30 -11 c17 -5 41 -7 55 -4
84 21 113 180 45 248 -32 32 -61 35 -105 12z m49 -50 c25 -24 22 -126 -4 -149
-17 -15 -24 -16 -45 -7 -23 11 -25 17 -25 73 0 85 34 123 74 83z"/>
<path d="M1015 416 c-22 -22 -24 -22 -28 -5 -4 13 -14 19 -36 19 l-31 0 0
-130 0 -130 35 0 35 0 0 64 c0 88 14 124 53 134 27 7 33 14 35 40 3 27 0 32
-18 32 -11 0 -32 -11 -45 -24z"/>
<path d="M1160 428 c-13 -7 -35 -29 -48 -48 -20 -29 -23 -44 -20 -93 4 -48 9
-63 35 -88 37 -38 93 -48 146 -26 39 17 42 23 28 46 -8 12 -14 13 -36 3 -37
-17 -62 -15 -85 8 -40 40 -28 50 65 50 84 0 85 0 85 25 0 35 -23 86 -48 108
-26 24 -90 31 -122 15z m84 -54 c9 -8 16 -24 16 -35 0 -16 -7 -19 -50 -19 -54
0 -61 10 -34 48 18 26 46 28 68 6z"/>
<path d="M1393 420 c-68 -41 -47 -110 43 -140 52 -18 65 -38 39 -60 -14 -11
-25 -11 -62 -1 -77 20 -90 -27 -14 -50 79 -24 161 17 161 80 0 35 -33 65 -91
82 -42 13 -55 32 -33 49 13 12 41 10 76 -4 11 -5 20 -1 28 14 10 18 7 22 -24
35 -48 20 -85 19 -123 -5z"/>
<path d="M1644 430 c-26 -10 -54 -48 -54 -71 0 -28 37 -65 78 -77 54 -16 71
-37 49 -60 -15 -14 -23 -15 -64 -4 -40 11 -49 11 -62 -3 -14 -14 -14 -17 -1
-25 85 -55 210 -20 210 59 0 34 -31 64 -88 82 -49 15 -58 25 -42 44 14 16 45
16 82 1 11 -5 20 -1 28 14 10 18 7 22 -24 35 -39 17 -80 18 -112 5z"/>
</g>
</svg>
